<svg width="1200" height="420" viewBox="0 0 1200 420" fill="none" xmlns="http://www.w3.org/2000/svg">
  <rect width="1200" height="420" rx="32" fill="#0D1117" stroke="#58A6FF" stroke-opacity="0.16"/>
  <text x="56" y="64" fill="#F8FAFC" font-family="Inter, sans-serif" font-size="24" font-weight="700">Tech stack</text>
  <g opacity="0.96">
    <rect x="56" y="94" width="330" height="110" rx="24" fill="#10161F" stroke="#00E5FF" stroke-opacity="0.14"/>
    <text x="86" y="132" fill="#58A6FF" font-family="Inter, sans-serif" font-size="14" font-weight="700">Programming</text>
    <g>
      <circle cx="86" cy="170" r="18" fill="#3776AB"/>
      <text x="76" y="176" fill="#F8FAFC" font-family="Inter, sans-serif" font-size="12">Py</text>
      <rect x="126" y="156" width="76" height="32" rx="12" fill="#0D1117" stroke="#58A6FF" stroke-opacity="0.16"/>
      <text x="148" y="176" fill="#F8FAFC" font-family="Inter, sans-serif" font-size="12">Python</text>
    </g>
    <g>
      <circle cx="86" cy="214" r="18" fill="#336791"/>
      <text x="76" y="220" fill="#F8FAFC" font-family="Inter, sans-serif" font-size="12">SQL</text>
      <rect x="126" y="200" width="76" height="32" rx="12" fill="#0D1117" stroke="#58A6FF" stroke-opacity="0.16"/>
      <text x="148" y="220" fill="#F8FAFC" font-family="Inter, sans-serif" font-size="12">SQL</text>
    </g>
    <g>
      <circle cx="86" cy="258" r="18" fill="#4EAA25"/>
      <text x="74" y="264" fill="#F8FAFC" font-family="Inter, sans-serif" font-size="12">Bash</text>
      <rect x="126" y="244" width="76" height="32" rx="12" fill="#0D1117" stroke="#58A6FF" stroke-opacity="0.16"/>
      <text x="148" y="264" fill="#F8FAFC" font-family="Inter, sans-serif" font-size="12">Bash</text>
    </g>
  </g>
  <g opacity="0.96">
    <rect x="440" y="94" width="330" height="110" rx="24" fill="#10161F" stroke="#00E5FF" stroke-opacity="0.14"/>
    <text x="470" y="132" fill="#58A6FF" font-family="Inter, sans-serif" font-size="14" font-weight="700">Backend</text>
    <g>
      <rect x="470" y="154" width="124" height="32" rx="12" fill="#0D1117" stroke="#58A6FF" stroke-opacity="0.16"/>
      <text x="490" y="176" fill="#F8FAFC" font-family="Inter, sans-serif" font-size="12">Django</text>
    </g>
    <g>
      <rect x="470" y="198" width="124" height="32" rx="12" fill="#0D1117" stroke="#58A6FF" stroke-opacity="0.16"/>
      <text x="490" y="220" fill="#F8FAFC" font-family="Inter, sans-serif" font-size="12">SQLite</text>
    </g>
    <g>
      <rect x="470" y="242" width="124" height="32" rx="12" fill="#0D1117" stroke="#58A6FF" stroke-opacity="0.16"/>
      <text x="490" y="264" fill="#F8FAFC" font-family="Inter, sans-serif" font-size="12">MySQL</text>
    </g>
  </g>
  <g opacity="0.96">
    <rect x="824" y="94" width="320" height="230" rx="24" fill="#10161F" stroke="#00E5FF" stroke-opacity="0.14"/>
    <text x="854" y="132" fill="#58A6FF" font-family="Inter, sans-serif" font-size="14" font-weight="700">Cybersecurity</text>
    <g>
      <rect x="854" y="154" width="116" height="32" rx="12" fill="#0D1117" stroke="#58A6FF" stroke-opacity="0.16"/>
      <text x="874" y="176" fill="#F8FAFC" font-family="Inter, sans-serif" font-size="12">Linux</text>
    </g>
    <g>
      <rect x="854" y="198" width="116" height="32" rx="12" fill="#0D1117" stroke="#58A6FF" stroke-opacity="0.16"/>
      <text x="874" y="220" fill="#F8FAFC" font-family="Inter, sans-serif" font-size="12">Wireshark</text>
    </g>
    <g>
      <rect x="854" y="242" width="116" height="32" rx="12" fill="#0D1117" stroke="#58A6FF" stroke-opacity="0.16"/>
      <text x="874" y="264" fill="#F8FAFC" font-family="Inter, sans-serif" font-size="12">Nmap</text>
    </g>
  </g>
</svg>